<?xml version="1.0" encoding="utf-8"?>
<!-- Generator: Adobe Illustrator 19.2.1, SVG Export Plug-In . SVG Version: 6.00 Build 0)  -->
<svg version="1.1" id="Layer_1" xmlns="http://www.w3.org/2000/svg" xmlns:xlink="http://www.w3.org/1999/xlink" x="0px" y="0px"
	 viewBox="0 0 1280 720" style="enable-background:new 0 0 1280 720;" xml:space="preserve">
<style type="text/css">
	.st0{fill:#FFFFFF;}
	.st1{font-family:'Bebas';}
	.st2{font-size:22.6777px;}
	.st3{letter-spacing:4;}
	.st4{fill:none;}
	.st5{font-family:'Times-Roman';}
	.st6{font-size:14.768px;}
	.st7{letter-spacing:6;}
</style>
<g>
	<g>
		<path class="st0" d="M436.9,350.2c-0.7-16.7-1.5-36.6-1.3-51.6c-0.1,0-0.3,0-0.4,0.1c-3.5,14.5-7.7,29.9-12.7,46.5
			c-5.9,19.5-11.8,38.5-17.7,56.8c-3.2,0-6.4-0.1-9.7-0.1c-5.3-17.8-10.5-35.1-15.8-51.7c-4.7-14.8-8.6-27.8-11.4-39.7
			c-0.1,0-0.2,0-0.3,0.1c-0.3,13.1-1.1,30.8-1.9,46.5c-0.9,15-1.8,29.9-2.7,44.7c-4-0.1-8-0.3-12.1-0.5c2.3-33.2,4.6-67.2,6.9-101.8
			c5.4-1.4,10.8-2.7,16.3-4c5.6,15.9,11.2,32.5,16.8,49.8c4.1,13.2,7.4,25.4,9.9,37.1c0.1,0,0.3,0,0.4,0
			c2.5-11.5,6.1-24.2,10.5-39.1c5.9-19.1,11.9-38.9,17.9-59c5.5-0.9,10.9-1.8,16.4-2.7c1.9,40.1,3.8,80.6,5.6,121.3
			c-4.2,0-8.4,0-12.5,0C438.5,385.3,437.7,367.7,436.9,350.2z"/>
		<path class="st0" d="M487.9,362.7c-3.5,13.5-7.1,26.8-10.6,40c-4.4,0-8.9,0.1-13.3,0.1c11.5-41.4,23-84.4,34.6-128.3
			c5.2-0.6,10.4-1.1,15.6-1.7c11.2,42,22.3,85.1,33.6,128.9c-4.6,0.1-9.2,0.1-13.9,0.2c-3.5-13.7-7-27.3-10.5-40.8
			C511.5,361.6,499.7,362.2,487.9,362.7z M520.8,348.2c-3.2-12.3-6.4-24.5-9.6-36.7c-2.2-8.3-3.6-15.8-5.1-23.1c-0.1,0-0.2,0-0.3,0
			c-1.5,7.8-3.2,15.7-5.2,23.7c-3.3,12.6-6.7,25.2-10,37.6C500.7,349.2,510.7,348.6,520.8,348.2z"/>
		<path class="st0" d="M585,401.2c0.1-18.9,0.2-37.9,0.2-56.8c-10.5-25.4-21-50.4-31.4-75c4.9-0.4,9.8-0.7,14.7-1
			c4.7,11.9,9.3,24,14,36c3.8,9.9,6.8,18,9.9,27.2c0.1,0,0.2,0,0.3,0c2.9-8.9,6.3-17.7,10.3-28.1c4.9-12.6,9.7-25.1,14.6-37.7
			c4.9-0.2,9.8-0.4,14.8-0.5c-11.3,26.2-22.7,52.5-34,78.5c-0.1,19.1-0.1,38.2-0.2,57.2C593.7,401.1,589.3,401.2,585,401.2z"/>
		<path class="st0" d="M643.8,266.8c5.7-1.7,14.6-3.1,23.7-3.3c13-0.2,21.3,2.9,27.6,9.7c5.2,5.3,8.4,13.3,8.4,24
			c0,13.1-6.4,24.6-17.1,29.9c0,0.1,0,0.3,0,0.4c9.6,3.2,20.8,13.9,20.8,34.1c0,11.7-3.4,20.6-8.5,27.2c-7.1,8.7-18.5,12.7-35,12.8
			c-9,0-15.9-0.7-20.3-1.5C643.7,355.7,643.7,311.3,643.8,266.8z M656.7,322.1c3.9-0.1,7.9-0.1,11.8-0.1
			c13.8-0.1,21.9-9.8,21.9-22.9c0-15.9-9-22.2-22.1-22.1c-6,0.1-9.4,0.7-11.5,1.4C656.8,293,656.8,307.6,656.7,322.1z M656.6,387.2
			c2.6,0.6,6.3,0.8,11,0.7c13.5-0.1,26-6.7,26-26.5c0-18.6-11.8-26.2-26.1-26.1c-3.6,0-7.2,0.1-10.8,0.1
			C656.7,352.7,656.7,369.9,656.6,387.2z"/>
		<path class="st0" d="M737.8,264.9c0.1,26.8,0.1,53.5,0.2,80.3c0.1,30.4,10.1,43.4,23.6,43.5c15,0.2,24.5-12.9,24.4-42.6
			c-0.1-26.5-0.2-53.1-0.3-79.6c4.4,0.2,8.7,0.4,13.1,0.7c0.1,26,0.2,52.1,0.3,78.1c0.2,41.1-16.1,57.8-38,57.6
			c-20.7-0.2-36.4-16.2-36.4-58.3c0-26.7-0.1-53.3-0.1-80C729,264.7,733.4,264.8,737.8,264.9z"/>
		<path class="st0" d="M821.3,270.3c6.5-1.3,15.9-1.6,24.9-0.9c13.8,1.2,22.8,5.4,29.1,13.2c5.1,6.2,8,15.3,8,25.2
			c0.1,16.9-8.2,27.6-18.7,31.7c0,0.2,0,0.4,0,0.6c7.8,3.9,12.4,13.3,14.9,26.8c3.4,18.1,5.8,30.5,7.9,35.5
			c-4.5-0.1-8.9-0.1-13.4-0.2c-1.7-3.7-3.9-14.8-6.9-31.1c-3.1-18-8.5-25.1-20.2-26.2c-4.1-0.2-8.1-0.4-12.2-0.5
			c0.1,19.1,0.2,38.2,0.3,57.3c-4.3-0.1-8.7-0.1-13-0.2C821.7,357.8,821.5,314,821.3,270.3z M834.6,331.4c4.4,0.2,8.8,0.4,13.3,0.7
			c13.8,0.7,22.6-8.6,22.5-23.4c-0.1-16.7-9.5-24.9-23.2-26.2c-6.3-0.5-10.7,0-12.8,0.6C834.4,299.3,834.5,315.4,834.6,331.4z"/>
		<path class="st0" d="M924.2,402.8c-0.1-17.5-0.2-35.1-0.3-52.6c-10.6-24.4-21.3-49.7-31.9-75.4c4.9,0.6,9.8,1.2,14.7,1.8
			c4.8,12.2,9.5,24.3,14.3,36.2c3.9,9.8,6.9,17.6,10,26.4c0.1,0,0.2,0,0.3,0c2.8-7.8,6.1-15.5,9.9-24.2c4.7-10.6,9.5-21,14.2-31.2
			c4.9,0.8,9.7,1.7,14.6,2.6c-11,20.2-22.1,41.8-33.1,64.5c0.1,17.3,0.2,34.7,0.2,52C932.8,402.9,928.5,402.9,924.2,402.8z"/>
		<path class="st0" d="M979.9,384.8c5.7,4.2,14.1,7.6,22.9,7.6c13-0.1,20.6-7.4,20.5-17.8c0-9.7-5.3-15.5-18.6-22.4
			c-16.1-7.7-26.2-18.6-26.2-34.8c-0.1-18,12.7-28.9,32-24.2c10.1,2.4,17.5,6.8,21.8,10.4c-1.2,3.3-2.3,6.6-3.5,9.9
			c-3.2-2.5-9.8-7.1-18.8-8.9c-13.5-2.9-18.6,5.4-18.6,13.1c0,10.5,6.1,16.5,19.7,23.9c16.7,9.1,25.1,17.9,25.1,32.5
			c0,15.2-11.2,29.1-34.4,30.1c-9.5,0.3-19.9-2.7-25.2-6.9C977.7,393,978.8,388.9,979.9,384.8z"/>
	</g>
</g>
<g id="Banner">
	<g>
		<polygon class="st0" points="498.4,458 496,458 496,455.5 496,424 444.9,424 464.9,444.3 444.9,466 529,466 529,458 		"/>
	</g>
	<g>
		<polygon class="st0" points="874.9,424 825,424 825,455.5 825,458 823.4,458 791,458 791,466 874.9,466 854.9,445.7 		"/>
	</g>
	<path class="st0" d="M498,411v45h325v-45H498z M514.9,436c-1.9,0-3.5-1.6-3.5-3.5s1.6-3.5,3.5-3.5c1.9,0,3.5,1.6,3.5,3.5
		S516.8,436,514.9,436z M808.9,436c-1.9,0-3.5-1.6-3.5-3.5s1.6-3.5,3.5-3.5c1.9,0,3.5,1.6,3.5,3.5S810.8,436,808.9,436z"/>
</g>
<text transform="matrix(1 0 0 1 526.808 436)" class="st0 st1 st2 st3">VINTAGE CLOCKWORK</text>
<path id="SVGID_x5F_1_x5F_" class="st4" d="M655.8,531.3c71.6,0,129.7-33.7,129.7-75.3c0-41.6-58.1-75.3-129.7-75.3
	c-71.6,0-129.7,33.7-129.7,75.3C526.1,497.6,584.2,531.3,655.8,531.3z"/>
<text><textPath  xlink:href="#SVGID_x5F_1_x5F_" startOffset="8514.1113%">
<tspan  class="st0 st1" style="font-size:18px; letter-spacing:450;">GREAT BRITAIN</tspan></textPath>
</text>
<text transform="matrix(1 0 0 1 602.7212 480.7148)" class="st0 st5 st6 st7">EST. 1972</text>
<g id="Clock">
	<g>
		<g>
			<path class="st0" d="M659.3,248.1c-31.3,0-56.8-25.5-56.8-56.8c0-31.3,25.5-56.8,56.8-56.8c31.3,0,56.8,25.5,56.8,56.8
				C716.1,222.6,690.6,248.1,659.3,248.1z M659.3,136.2c-30.4,0-55.2,24.8-55.2,55.2s24.8,55.2,55.2,55.2
				c30.4,0,55.2-24.8,55.2-55.2S689.7,136.2,659.3,136.2z"/>
		</g>
	</g>
	<g>
		<g>
			<path class="st0" d="M659.3,252.8c-33.9,0-61.5-27.6-61.5-61.5s27.6-61.5,61.5-61.5c33.9,0,61.5,27.6,61.5,61.5
				S693.2,252.8,659.3,252.8z M659.3,132.3c-32.6,0-59.1,26.5-59.1,59.1s26.5,59.1,59.1,59.1s59.1-26.5,59.1-59.1
				S691.9,132.3,659.3,132.3z"/>
		</g>
	</g>
	<g>
		<path class="st0" d="M680.7,157.9c0.6,0,0.9-0.1,1.1-0.2c0.2-0.1,0.2-0.4,0.2-1v-6c0-0.5-0.1-0.8-0.2-1c-0.2-0.1-0.5-0.2-1.1-0.3
			v-0.3h4v0.3c-0.5,0-0.9,0.1-1.1,0.3c-0.2,0.1-0.2,0.5-0.2,1v6c0,0.5,0.1,0.8,0.2,1c0.2,0.1,0.5,0.2,1.1,0.2v0.3h-4V157.9z"/>
	</g>
	<g>
		<path class="st0" d="M694,171.7c0.6,0,0.9-0.1,1.1-0.2c0.2-0.1,0.2-0.4,0.2-1v-6c0-0.5-0.1-0.8-0.2-1c-0.2-0.1-0.5-0.2-1.1-0.3
			V163h4v0.3c-0.5,0-0.9,0.1-1.1,0.3c-0.2,0.1-0.2,0.5-0.2,1v6c0,0.5,0.1,0.8,0.2,1c0.2,0.1,0.5,0.2,1.1,0.2v0.3h-4V171.7z"/>
		<path class="st0" d="M698.5,171.7c0.6,0,0.9-0.1,1.1-0.2c0.2-0.1,0.2-0.4,0.2-1v-6c0-0.5-0.1-0.8-0.2-1c-0.2-0.1-0.5-0.2-1.1-0.3
			V163h4v0.3c-0.5,0-0.9,0.1-1.1,0.3c-0.2,0.1-0.2,0.5-0.2,1v6c0,0.5,0.1,0.8,0.2,1c0.2,0.1,0.5,0.2,1.1,0.2v0.3h-4V171.7z"/>
	</g>
	<g>
		<path class="st0" d="M680.8,226.5v0.2c-0.3,0-0.6,0-0.7,0.1c-0.2,0.1-0.3,0.2-0.3,0.4c0,0.1,0,0.3,0.1,0.5c0.1,0.2,0.2,0.5,0.4,1
			l2.1,4.7l1.9-5.1c0.1-0.2,0.1-0.4,0.2-0.6c0-0.2,0.1-0.3,0.1-0.4c0-0.3-0.1-0.4-0.3-0.5c-0.1-0.1-0.3-0.1-0.7-0.1v-0.2h2.8v0.2
			c-0.3,0-0.5,0.1-0.6,0.2c-0.2,0.2-0.4,0.5-0.6,1l-3,7.6H682l-3.3-7.4c-0.3-0.6-0.5-1-0.7-1.2c-0.2-0.2-0.4-0.2-0.7-0.3v-0.2H680.8
			z"/>
	</g>
	<g>
		<path class="st0" d="M698.4,195.1c0.6,0,0.9-0.1,1.1-0.2c0.2-0.1,0.2-0.4,0.2-1v-6c0-0.5-0.1-0.8-0.2-1c-0.2-0.1-0.5-0.2-1.1-0.3
			v-0.3h4v0.3c-0.5,0-0.9,0.1-1.1,0.3c-0.2,0.1-0.2,0.5-0.2,1v6c0,0.5,0.1,0.8,0.2,1c0.2,0.1,0.5,0.2,1.1,0.2v0.3h-4V195.1z"/>
		<path class="st0" d="M702.9,195.1c0.6,0,0.9-0.1,1.1-0.2c0.2-0.1,0.2-0.4,0.2-1v-6c0-0.5-0.1-0.8-0.2-1c-0.2-0.1-0.5-0.2-1.1-0.3
			v-0.3h4v0.3c-0.5,0-0.9,0.1-1.1,0.3c-0.2,0.1-0.2,0.5-0.2,1v6c0,0.5,0.1,0.8,0.2,1c0.2,0.1,0.5,0.2,1.1,0.2v0.3h-4V195.1z"/>
		<path class="st0" d="M707.4,195.1c0.6,0,0.9-0.1,1.1-0.2c0.2-0.1,0.2-0.4,0.2-1v-6c0-0.5-0.1-0.8-0.2-1c-0.2-0.1-0.5-0.2-1.1-0.3
			v-0.3h4v0.3c-0.5,0-0.9,0.1-1.1,0.3c-0.2,0.1-0.2,0.5-0.2,1v6c0,0.5,0.1,0.8,0.2,1c0.2,0.1,0.5,0.2,1.1,0.2v0.3h-4V195.1z"/>
	</g>
	<g>
		<path class="st0" d="M691.5,217.6c0.6,0,0.9-0.1,1.1-0.2c0.2-0.1,0.2-0.4,0.2-1v-6c0-0.5-0.1-0.8-0.2-1c-0.2-0.1-0.5-0.2-1.1-0.3
			v-0.3h4v0.3c-0.5,0-0.9,0.1-1.1,0.3c-0.2,0.1-0.2,0.5-0.2,1v6c0,0.5,0.1,0.8,0.2,1c0.2,0.1,0.5,0.2,1.1,0.2v0.3h-4V217.6z"/>
		<path class="st0" d="M699.6,208.9v0.2c-0.3,0-0.6,0-0.7,0.1c-0.2,0.1-0.3,0.2-0.3,0.4c0,0.1,0,0.3,0.1,0.5c0.1,0.2,0.2,0.5,0.4,1
			l2.1,4.7l1.9-5.1c0.1-0.2,0.1-0.4,0.2-0.6c0-0.2,0.1-0.3,0.1-0.4c0-0.3-0.1-0.4-0.3-0.5c-0.1-0.1-0.3-0.1-0.7-0.1v-0.2h2.8v0.2
			c-0.3,0-0.5,0.1-0.6,0.2c-0.2,0.2-0.4,0.5-0.6,1l-3,7.6h-0.2l-3.3-7.4c-0.3-0.6-0.5-1-0.7-1.2c-0.2-0.2-0.4-0.2-0.7-0.3v-0.2
			H699.6z"/>
	</g>
	<g>
		<path class="st0" d="M656.8,234.7v0.2c-0.3,0-0.6,0-0.7,0.1c-0.2,0.1-0.3,0.2-0.3,0.4c0,0.1,0,0.3,0.1,0.5c0.1,0.2,0.2,0.5,0.4,1
			l2.1,4.7l1.9-5.1c0.1-0.2,0.1-0.4,0.2-0.6c0-0.2,0.1-0.3,0.1-0.4c0-0.3-0.1-0.4-0.3-0.5c-0.1-0.1-0.3-0.1-0.7-0.1v-0.2h2.8v0.2
			c-0.3,0-0.5,0.1-0.6,0.2c-0.2,0.2-0.4,0.5-0.6,1l-3,7.6H658l-3.3-7.4c-0.3-0.6-0.5-1-0.7-1.2c-0.2-0.2-0.4-0.2-0.7-0.3v-0.2H656.8
			z"/>
		<path class="st0" d="M663,243.4c0.6,0,0.9-0.1,1.1-0.2c0.2-0.1,0.2-0.4,0.2-1v-6c0-0.5-0.1-0.8-0.2-1c-0.2-0.1-0.5-0.2-1.1-0.3
			v-0.3h4v0.3c-0.5,0-0.9,0.1-1.1,0.3c-0.2,0.1-0.2,0.5-0.2,1v6c0,0.5,0.1,0.8,0.2,1c0.2,0.1,0.5,0.2,1.1,0.2v0.3h-4V243.4z"/>
	</g>
	<g>
		<path class="st0" d="M634.2,226.5v0.2c-0.3,0-0.6,0-0.7,0.1c-0.2,0.1-0.3,0.2-0.3,0.4c0,0.1,0,0.3,0.1,0.5c0.1,0.2,0.2,0.5,0.4,1
			l2.1,4.7l1.9-5.1c0.1-0.2,0.1-0.4,0.2-0.6c0-0.2,0.1-0.3,0.1-0.4c0-0.3-0.1-0.4-0.3-0.5c-0.1-0.1-0.3-0.1-0.7-0.1v-0.2h2.8v0.2
			c-0.3,0-0.5,0.1-0.6,0.2c-0.2,0.2-0.4,0.5-0.6,1l-3,7.6h-0.2l-3.3-7.4c-0.3-0.6-0.5-1-0.7-1.2c-0.2-0.2-0.4-0.2-0.7-0.3v-0.2
			H634.2z"/>
		<path class="st0" d="M640.4,235.2c0.6,0,0.9-0.1,1.1-0.2c0.2-0.1,0.2-0.4,0.2-1v-6c0-0.5-0.1-0.8-0.2-1c-0.2-0.1-0.5-0.2-1.1-0.3
			v-0.3h4v0.3c-0.5,0-0.9,0.1-1.1,0.3c-0.2,0.1-0.2,0.5-0.2,1v6c0,0.5,0.1,0.8,0.2,1c0.2,0.1,0.5,0.2,1.1,0.2v0.3h-4V235.2z"/>
		<path class="st0" d="M644.9,235.2c0.6,0,0.9-0.1,1.1-0.2c0.2-0.1,0.2-0.4,0.2-1v-6c0-0.5-0.1-0.8-0.2-1c-0.2-0.1-0.5-0.2-1.1-0.3
			v-0.3h4v0.3c-0.5,0-0.9,0.1-1.1,0.3c-0.2,0.1-0.2,0.5-0.2,1v6c0,0.5,0.1,0.8,0.2,1c0.2,0.1,0.5,0.2,1.1,0.2v0.3h-4V235.2z"/>
	</g>
	<g>
		<path class="st0" d="M619,209.6v0.2c-0.3,0-0.6,0-0.7,0.1c-0.2,0.1-0.3,0.2-0.3,0.4c0,0.1,0,0.3,0.1,0.5c0.1,0.2,0.2,0.5,0.4,1
			l2.1,4.7l1.9-5.1c0.1-0.2,0.1-0.4,0.2-0.6c0-0.2,0.1-0.3,0.1-0.4c0-0.3-0.1-0.4-0.3-0.5c-0.1-0.1-0.3-0.1-0.7-0.1v-0.2h2.8v0.2
			c-0.3,0-0.5,0.1-0.6,0.2c-0.2,0.2-0.4,0.5-0.6,1l-3,7.6h-0.2l-3.3-7.4c-0.3-0.6-0.5-1-0.7-1.2c-0.2-0.2-0.4-0.2-0.7-0.3v-0.2H619z
			"/>
		<path class="st0" d="M625.1,218.3c0.6,0,0.9-0.1,1.1-0.2c0.2-0.1,0.2-0.4,0.2-1v-6c0-0.5-0.1-0.8-0.2-1c-0.2-0.1-0.5-0.2-1.1-0.3
			v-0.3h4v0.3c-0.6,0-0.9,0.1-1.1,0.3c-0.2,0.1-0.2,0.5-0.2,1v6c0,0.5,0.1,0.8,0.2,1c0.2,0.1,0.5,0.2,1.1,0.2v0.3h-4V218.3z"/>
		<path class="st0" d="M629.6,218.3c0.6,0,0.9-0.1,1.1-0.2c0.2-0.1,0.2-0.4,0.2-1v-6c0-0.5-0.1-0.8-0.2-1c-0.2-0.1-0.5-0.2-1.1-0.3
			v-0.3h4v0.3c-0.6,0-0.9,0.1-1.1,0.3c-0.2,0.1-0.2,0.5-0.2,1v6c0,0.5,0.1,0.8,0.2,1c0.2,0.1,0.5,0.2,1.1,0.2v0.3h-4V218.3z"/>
		<path class="st0" d="M634.1,218.3c0.6,0,0.9-0.1,1.1-0.2c0.2-0.1,0.2-0.4,0.2-1v-6c0-0.5-0.1-0.8-0.2-1c-0.2-0.1-0.5-0.2-1.1-0.3
			v-0.3h4v0.3c-0.6,0-0.9,0.1-1.1,0.3c-0.2,0.1-0.2,0.5-0.2,1v6c0,0.5,0.1,0.8,0.2,1c0.2,0.1,0.5,0.2,1.1,0.2v0.3h-4V218.3z"/>
	</g>
	<g>
		<path class="st0" d="M607.9,196.6c0.6,0,0.9-0.1,1.1-0.2c0.2-0.1,0.2-0.4,0.2-1v-6c0-0.5-0.1-0.8-0.2-1c-0.2-0.1-0.5-0.2-1.1-0.3
			v-0.3h4v0.3c-0.6,0-0.9,0.1-1.1,0.3c-0.2,0.1-0.2,0.5-0.2,1v6c0,0.5,0.1,0.8,0.2,1c0.2,0.1,0.5,0.2,1.1,0.2v0.3h-4V196.6z"/>
		<path class="st0" d="M612.3,196.6c0.4,0,0.6-0.1,0.8-0.3c0.2-0.2,0.6-0.6,1.1-1.3l2.1-2.6l-1.5-2.2c-0.6-0.9-1.1-1.5-1.4-1.8
			c-0.3-0.2-0.6-0.4-1-0.4v-0.3h4.1v0.3c-0.4,0-0.6,0-0.8,0.1c-0.2,0.1-0.3,0.2-0.3,0.4c0,0.1,0,0.3,0.1,0.4c0,0.1,0.1,0.2,0.2,0.3
			l1.4,2l1.5-1.8c0.2-0.3,0.4-0.5,0.5-0.6c0-0.1,0.1-0.2,0.1-0.3c0-0.2-0.1-0.3-0.3-0.4c-0.1,0-0.3-0.1-0.6-0.1v-0.3h3.2v0.3
			c-0.4,0-0.6,0.1-0.8,0.2c-0.3,0.2-0.7,0.5-1.2,1.1l-2,2.5l2.6,3.7c0.3,0.4,0.5,0.7,0.7,0.8c0.2,0.1,0.4,0.2,0.8,0.2v0.3h-4v-0.3
			c0.4,0,0.6,0,0.8-0.1c0.2-0.1,0.2-0.2,0.2-0.3c0-0.1-0.1-0.4-0.3-0.7c-0.2-0.3-0.8-1.2-1.7-2.5l-1.6,2c-0.2,0.3-0.4,0.5-0.5,0.6
			c-0.1,0.2-0.2,0.4-0.2,0.5c0,0.2,0.1,0.3,0.3,0.4c0.1,0,0.4,0.1,0.7,0.1v0.3h-3.1V196.6z"/>
	</g>
	<g>
		<path class="st0" d="M615.5,173c0.4,0,0.6-0.1,0.8-0.3c0.2-0.2,0.6-0.6,1.1-1.3l2.1-2.6l-1.5-2.2c-0.6-0.9-1.1-1.5-1.4-1.8
			c-0.3-0.2-0.6-0.4-1-0.4v-0.3h4.1v0.3c-0.4,0-0.6,0-0.8,0.1c-0.2,0.1-0.3,0.2-0.3,0.4c0,0.1,0,0.3,0.1,0.4c0,0.1,0.1,0.2,0.2,0.3
			l1.4,2l1.5-1.8c0.2-0.3,0.4-0.5,0.5-0.6c0-0.1,0.1-0.2,0.1-0.3c0-0.2-0.1-0.3-0.3-0.4c-0.1,0-0.3-0.1-0.6-0.1v-0.3h3.2v0.3
			c-0.4,0-0.6,0.1-0.8,0.2c-0.3,0.2-0.7,0.5-1.2,1.1l-2,2.5l2.6,3.7c0.3,0.4,0.5,0.7,0.7,0.8c0.2,0.1,0.4,0.2,0.8,0.2v0.3h-4V173
			c0.4,0,0.6,0,0.8-0.1c0.2-0.1,0.2-0.2,0.2-0.3c0-0.1-0.1-0.4-0.3-0.7c-0.2-0.3-0.8-1.2-1.7-2.5l-1.6,2c-0.2,0.3-0.4,0.5-0.5,0.6
			c-0.1,0.2-0.2,0.4-0.2,0.5c0,0.2,0.1,0.3,0.3,0.4c0.1,0,0.4,0.1,0.7,0.1v0.3h-3.1V173z"/>
	</g>
	<g>
		<path class="st0" d="M631.5,157.3c0.4,0,0.6-0.1,0.8-0.3c0.2-0.2,0.6-0.6,1.1-1.3l2.1-2.6L634,151c-0.6-0.9-1.1-1.5-1.4-1.8
			c-0.3-0.2-0.6-0.4-1-0.4v-0.3h4.1v0.3c-0.4,0-0.6,0-0.8,0.1c-0.2,0.1-0.3,0.2-0.3,0.4c0,0.1,0,0.3,0.1,0.4c0,0.1,0.1,0.2,0.2,0.3
			l1.4,2l1.5-1.8c0.2-0.3,0.4-0.5,0.5-0.6c0-0.1,0.1-0.2,0.1-0.3c0-0.2-0.1-0.3-0.3-0.4c-0.1,0-0.3-0.1-0.6-0.1v-0.3h3.2v0.3
			c-0.4,0-0.6,0.1-0.8,0.2c-0.3,0.2-0.7,0.5-1.2,1.1l-2,2.5l2.6,3.7c0.3,0.4,0.5,0.7,0.7,0.8c0.2,0.1,0.4,0.2,0.8,0.2v0.3h-4v-0.3
			c0.4,0,0.6,0,0.8-0.1c0.2-0.1,0.2-0.2,0.2-0.3c0-0.1-0.1-0.4-0.3-0.7c-0.2-0.3-0.8-1.2-1.7-2.5l-1.6,2c-0.2,0.3-0.4,0.5-0.5,0.6
			c-0.1,0.2-0.2,0.4-0.2,0.5c0,0.2,0.1,0.3,0.3,0.4c0.1,0,0.4,0.1,0.7,0.1v0.3h-3.1V157.3z"/>
		<path class="st0" d="M641.3,157.3c0.6,0,0.9-0.1,1.1-0.2c0.2-0.1,0.2-0.4,0.2-1v-6c0-0.5-0.1-0.8-0.2-1c-0.2-0.1-0.5-0.2-1.1-0.3
			v-0.3h4v0.3c-0.5,0-0.9,0.1-1.1,0.3c-0.2,0.1-0.2,0.5-0.2,1v6c0,0.5,0.1,0.8,0.2,1c0.2,0.1,0.5,0.2,1.1,0.2v0.3h-4V157.3z"/>
	</g>
	<g>
		<path class="st0" d="M650.3,149.3c0.4,0,0.6-0.1,0.8-0.3c0.2-0.2,0.6-0.6,1.1-1.3l2.1-2.6l-1.5-2.2c-0.6-0.9-1.1-1.5-1.4-1.8
			c-0.3-0.2-0.6-0.4-1-0.4v-0.3h4.1v0.3c-0.4,0-0.6,0-0.8,0.1c-0.2,0.1-0.3,0.2-0.3,0.4c0,0.1,0,0.3,0.1,0.4c0,0.1,0.1,0.2,0.2,0.3
			l1.4,2l1.5-1.8c0.2-0.3,0.4-0.5,0.5-0.6c0-0.1,0.1-0.2,0.1-0.3c0-0.2-0.1-0.3-0.3-0.4c-0.1,0-0.3-0.1-0.6-0.1v-0.3h3.2v0.3
			c-0.4,0-0.6,0.1-0.8,0.2c-0.3,0.2-0.7,0.5-1.2,1.1l-2,2.5l2.6,3.7c0.3,0.4,0.5,0.7,0.7,0.8c0.2,0.1,0.4,0.2,0.8,0.2v0.3h-4v-0.3
			c0.4,0,0.6,0,0.8-0.1c0.2-0.1,0.2-0.2,0.2-0.3c0-0.1-0.1-0.4-0.3-0.7c-0.2-0.3-0.8-1.2-1.7-2.5l-1.6,2c-0.2,0.3-0.4,0.5-0.5,0.6
			c-0.1,0.2-0.2,0.4-0.2,0.5c0,0.2,0.1,0.3,0.3,0.4c0.1,0,0.4,0.1,0.7,0.1v0.3h-3.1V149.3z"/>
		<path class="st0" d="M660.2,149.3c0.6,0,0.9-0.1,1.1-0.2c0.2-0.1,0.2-0.4,0.2-1v-6c0-0.5-0.1-0.8-0.2-1c-0.2-0.1-0.5-0.2-1.1-0.3
			v-0.3h4v0.3c-0.5,0-0.9,0.1-1.1,0.3c-0.2,0.1-0.2,0.5-0.2,1v6c0,0.5,0.1,0.8,0.2,1c0.2,0.1,0.5,0.2,1.1,0.2v0.3h-4V149.3z"/>
		<path class="st0" d="M664.7,149.3c0.6,0,0.9-0.1,1.1-0.2c0.2-0.1,0.2-0.4,0.2-1v-6c0-0.5-0.1-0.8-0.2-1c-0.2-0.1-0.5-0.2-1.1-0.3
			v-0.3h4v0.3c-0.5,0-0.9,0.1-1.1,0.3c-0.2,0.1-0.2,0.5-0.2,1v6c0,0.5,0.1,0.8,0.2,1c0.2,0.1,0.5,0.2,1.1,0.2v0.3h-4V149.3z"/>
	</g>
	<g>
		<polygon class="st0" points="655.8,193 659.1,189.4 662.3,193 		"/>
	</g>
	<g>
		<rect x="658" y="161" class="st0" width="2" height="32"/>
	</g>
	<g>
		<rect x="658" y="193" class="st0" width="2" height="16"/>
	</g>
	<g>
		<path class="st0" d="M659.1,157.8c0,1.6-2.8,1.4-2.6,3c0.1,1.3,1.7,1.3,2.6,1c1.5,0.4,2.5,0.3,2.6-1
			C661.9,159.2,659.1,159.3,659.1,157.8z"/>
	</g>
	<g>
		<path class="st0" d="M659.1,212c0-1.6,2.8-1.4,2.6-3c-0.1-1.3-1.7-1.3-2.6-1c-1.5-0.4-2.5-0.3-2.6,1
			C656.3,210.6,659.1,210.5,659.1,212z"/>
	</g>
</g>
<g id="Stars">
	<polygon class="st0" points="580.1,234.1 582,240 588.2,240 583.2,244.1 585.1,250.3 580.1,246.7 575,250.4 577,244.1 571.9,240 
		578.2,240 	"/>
	<polygon class="st0" points="556.1,236.1 558,242 564.2,242 559.2,245.8 561.1,251.7 556.1,248.1 551.1,251.8 553,245.7 548,242 
		554.2,242 	"/>
	<polygon class="st0" points="534.9,241.1 536.8,247 543,247 538,250.7 539.9,256.6 534.9,253 529.9,256.6 531.8,250.7 526.8,247 
		533,247 	"/>
	<polygon class="st0" points="735.9,234.1 734,240 727.8,240 732.8,244.1 730.9,250.3 735.9,246.7 741,250.4 739,244.1 744.1,240 
		737.8,240 	"/>
	<polygon class="st0" points="759.9,236.1 758,242 751.8,242 756.8,245.8 754.9,251.7 759.9,248.1 764.9,251.8 763,245.7 768,242 
		761.8,242 	"/>
	<polygon class="st0" points="781.1,241.1 779.2,247 773,247 778,250.7 776.1,256.6 781.1,253 786.1,256.6 784.2,250.7 789.2,247 
		783,247 	"/>
</g>
</svg>
