<?xml version="1.0" encoding="utf-8"?>
<!-- Generator: Adobe Illustrator 19.2.1, SVG Export Plug-In . SVG Version: 6.00 Build 0)  -->
<svg version="1.1" id="Layer_1" xmlns="http://www.w3.org/2000/svg" xmlns:xlink="http://www.w3.org/1999/xlink" x="0px" y="0px"
	 viewBox="0 0 685.3 350.9" style="enable-background:new 0 0 685.3 350.9;" xml:space="preserve">
<style type="text/css">
	.st0{fill:#FFFFFF;}
	.st1{font-family:'ArialMT';}
	.st2{font-size:22.6777px;}
	.st3{letter-spacing:3;}
	.st4{fill:none;}
	.st5{font-family:'Times-Roman';}
	.st6{font-size:14.768px;}
	.st7{letter-spacing:5;}
</style>
<g>
	<g>
		<path d="M86,220.4c-0.7-16.7-1.5-36.6-1.3-51.6c-0.1,0-0.3,0-0.4,0.1c-3.5,14.5-7.7,29.9-12.7,46.5c-5.9,19.5-11.8,38.5-17.7,56.8
			c-3.2,0-6.4-0.1-9.7-0.1c-5.3-17.8-10.5-35.1-15.8-51.7c-4.7-14.8-8.6-27.8-11.4-39.7c-0.1,0-0.2,0-0.3,0.1
			c-0.3,13.1-1.1,30.8-1.9,46.5c-0.9,15-1.8,29.9-2.7,44.7c-4-0.1-8-0.3-12.1-0.5c2.3-33.2,4.6-67.2,6.9-101.8
			c5.4-1.4,10.8-2.7,16.3-4c5.6,15.9,11.2,32.5,16.8,49.8c4.1,13.2,7.4,25.4,9.9,37.1c0.1,0,0.3,0,0.4,0
			c2.5-11.5,6.1-24.2,10.5-39.1c5.9-19.1,11.9-38.9,17.9-59c5.5-0.9,10.9-1.8,16.4-2.7c1.9,40.1,3.8,80.6,5.6,121.3
			c-4.2,0-8.4,0-12.5,0C87.6,255.5,86.8,237.9,86,220.4z"/>
		<path d="M137,232.9c-3.5,13.5-7.1,26.8-10.6,40c-4.4,0-8.9,0.1-13.3,0.1c11.5-41.4,23-84.4,34.6-128.3c5.2-0.6,10.4-1.1,15.6-1.7
			c11.2,42,22.3,85.1,33.6,128.9c-4.6,0.1-9.2,0.1-13.9,0.2c-3.5-13.7-7-27.3-10.5-40.8C160.6,231.8,148.8,232.4,137,232.9z
			 M169.9,218.4c-3.2-12.3-6.4-24.5-9.6-36.7c-2.2-8.3-3.6-15.8-5.1-23.1c-0.1,0-0.2,0-0.3,0c-1.5,7.8-3.2,15.7-5.2,23.7
			c-3.3,12.6-6.7,25.2-10,37.6C149.8,219.4,159.8,218.8,169.9,218.4z"/>
		<path d="M234.1,271.4c0.1-18.9,0.2-37.9,0.2-56.8c-10.5-25.4-21-50.4-31.4-75c4.9-0.4,9.8-0.7,14.7-1c4.7,11.9,9.3,24,14,36
			c3.8,9.9,6.8,18,9.9,27.2c0.1,0,0.2,0,0.3,0c2.9-8.9,6.3-17.7,10.3-28.1c4.9-12.6,9.7-25.1,14.6-37.7c4.9-0.2,9.8-0.4,14.8-0.5
			c-11.3,26.2-22.7,52.5-34,78.5c-0.1,19.1-0.1,38.2-0.2,57.2C242.8,271.3,238.4,271.4,234.1,271.4z"/>
		<path d="M292.9,137c5.7-1.7,14.6-3.1,23.7-3.3c13-0.2,21.3,2.9,27.6,9.7c5.2,5.3,8.4,13.3,8.4,24c0,13.1-6.4,24.6-17.1,29.9
			c0,0.1,0,0.3,0,0.4c9.6,3.2,20.8,13.9,20.8,34.1c0,11.7-3.4,20.6-8.5,27.2c-7.1,8.7-18.5,12.7-35,12.8c-9,0-15.9-0.7-20.3-1.5
			C292.8,225.9,292.8,181.5,292.9,137z M305.8,192.3c3.9-0.1,7.9-0.1,11.8-0.1c13.8-0.1,21.9-9.8,21.9-22.9c0-15.9-9-22.2-22.1-22.1
			c-6,0.1-9.4,0.7-11.5,1.4C305.9,163.2,305.9,177.8,305.8,192.3z M305.7,257.4c2.6,0.6,6.3,0.8,11,0.7c13.5-0.1,26-6.7,26-26.5
			c0-18.6-11.8-26.2-26.1-26.1c-3.6,0-7.2,0.1-10.8,0.1C305.8,222.9,305.8,240.1,305.7,257.4z"/>
		<path d="M386.9,135.1c0.1,26.8,0.1,53.5,0.2,80.3c0.1,30.4,10.1,43.4,23.6,43.5c15,0.2,24.5-12.9,24.4-42.6
			c-0.1-26.5-0.2-53.1-0.3-79.6c4.4,0.2,8.7,0.4,13.1,0.7c0.1,26,0.2,52.1,0.3,78.1c0.2,41.1-16.1,57.8-38,57.6
			c-20.7-0.2-36.4-16.2-36.4-58.3c0-26.7-0.1-53.3-0.1-80C378.1,134.9,382.5,135,386.9,135.1z"/>
		<path d="M470.4,140.5c6.5-1.3,15.9-1.6,24.9-0.9c13.8,1.2,22.8,5.4,29.1,13.2c5.1,6.2,8,15.3,8,25.2c0.1,16.9-8.2,27.6-18.7,31.7
			c0,0.2,0,0.4,0,0.6c7.8,3.9,12.4,13.3,14.9,26.8c3.4,18.1,5.8,30.5,7.9,35.5c-4.5-0.1-8.9-0.1-13.4-0.2
			c-1.7-3.7-3.9-14.8-6.9-31.1c-3.1-18-8.5-25.1-20.2-26.2c-4.1-0.2-8.1-0.4-12.2-0.5c0.1,19.1,0.2,38.2,0.3,57.3
			c-4.3-0.1-8.7-0.1-13-0.2C470.8,228,470.6,184.2,470.4,140.5z M483.7,201.6c4.4,0.2,8.8,0.4,13.3,0.7c13.8,0.7,22.6-8.6,22.5-23.4
			c-0.1-16.7-9.5-24.9-23.2-26.2c-6.3-0.5-10.7,0-12.8,0.6C483.5,169.5,483.6,185.6,483.7,201.6z"/>
		<path d="M573.3,273c-0.1-17.5-0.2-35.1-0.3-52.6c-10.6-24.4-21.3-49.7-31.9-75.4c4.9,0.6,9.8,1.2,14.7,1.8
			c4.8,12.2,9.5,24.3,14.3,36.2c3.9,9.8,6.9,17.6,10,26.4c0.1,0,0.2,0,0.3,0c2.8-7.8,6.1-15.5,9.9-24.2c4.7-10.6,9.5-21,14.2-31.2
			c4.9,0.8,9.7,1.7,14.6,2.6c-11,20.2-22.1,41.8-33.1,64.5c0.1,17.3,0.2,34.7,0.2,52C581.9,273.1,577.6,273.1,573.3,273z"/>
		<path d="M629,255c5.7,4.2,14.1,7.6,22.9,7.6c13-0.1,20.6-7.4,20.5-17.8c0-9.7-5.3-15.5-18.6-22.4c-16.1-7.7-26.2-18.6-26.2-34.8
			c-0.1-18,12.7-28.9,32-24.2c10.1,2.4,17.5,6.8,21.8,10.4c-1.2,3.3-2.3,6.6-3.5,9.9c-3.2-2.5-9.8-7.1-18.8-8.9
			c-13.5-2.9-18.6,5.4-18.6,13.1c0,10.5,6.1,16.5,19.7,23.9c16.7,9.1,25.1,17.9,25.1,32.5c0,15.2-11.2,29.1-34.4,30.1
			c-9.5,0.3-19.9-2.7-25.2-6.9C626.8,263.2,627.9,259.1,629,255z"/>
	</g>
</g>
<g id="Banner">
	<g>
		<polygon points="147.5,328.2 145.1,328.2 145.1,325.7 145.1,294.2 94,294.2 114,314.5 94,336.2 178.1,336.2 178.1,328.2 		"/>
	</g>
	<g>
		<polygon points="524,294.2 474.1,294.2 474.1,325.7 474.1,328.2 472.5,328.2 440.1,328.2 440.1,336.2 524,336.2 504,315.9 		"/>
	</g>
	<path d="M147.1,281.2v45h325v-45H147.1z M164,306.2c-1.9,0-3.5-1.6-3.5-3.5c0-1.9,1.6-3.5,3.5-3.5s3.5,1.6,3.5,3.5
		C167.5,304.6,165.9,306.2,164,306.2z M458,306.2c-1.9,0-3.5-1.6-3.5-3.5c0-1.9,1.6-3.5,3.5-3.5s3.5,1.6,3.5,3.5
		C461.5,304.6,459.9,306.2,458,306.2z"/>
</g>
<text transform="matrix(1 0 0 1 175.908 306.2)" class="st0 st1 st2 st3">VINTAGE CLOCKWORK</text>
<path id="SVGID_x5F_1_x5F_" class="st4" d="M304.9,401.5c71.6,0,129.7-33.7,129.7-75.3c0-41.6-58.1-75.3-129.7-75.3
	s-129.7,33.7-129.7,75.3S233.3,401.5,304.9,401.5z"/>
<text transform="matrix(1 0 0 1 -350.9 -129.8)" class="st1" style="font-size:12px;"> </text>
<text transform="matrix(1 0 0 1 251.8212 350.9148)" class="st5 st6 st7">EST. 1972</text>
<g id="Clock">
	<g>
		<g>
			<path d="M308.4,118.3c-31.3,0-56.8-25.5-56.8-56.8s25.5-56.8,56.8-56.8s56.8,25.5,56.8,56.8S339.7,118.3,308.4,118.3z M308.4,6.4
				c-30.4,0-55.2,24.8-55.2,55.2s24.8,55.2,55.2,55.2s55.2-24.8,55.2-55.2S338.8,6.4,308.4,6.4z"/>
		</g>
	</g>
	<g>
		<g>
			<path d="M308.4,123c-33.9,0-61.5-27.6-61.5-61.5S274.5,0,308.4,0s61.5,27.6,61.5,61.5S342.3,123,308.4,123z M308.4,2.5
				c-32.6,0-59.1,26.5-59.1,59.1s26.5,59.1,59.1,59.1s59.1-26.5,59.1-59.1S341,2.5,308.4,2.5z"/>
		</g>
	</g>
	<g>
		<path d="M329.8,28.1c0.6,0,0.9-0.1,1.1-0.2c0.2-0.1,0.2-0.4,0.2-1v-6c0-0.5-0.1-0.8-0.2-1c-0.2-0.1-0.5-0.2-1.1-0.3v-0.3h4v0.3
			c-0.5,0-0.9,0.1-1.1,0.3c-0.2,0.1-0.2,0.5-0.2,1v6c0,0.5,0.1,0.8,0.2,1c0.2,0.1,0.5,0.2,1.1,0.2v0.3h-4V28.1z"/>
	</g>
	<g>
		<path d="M343.1,41.9c0.6,0,0.9-0.1,1.1-0.2c0.2-0.1,0.2-0.4,0.2-1v-6c0-0.5-0.1-0.8-0.2-1c-0.2-0.1-0.5-0.2-1.1-0.3v-0.2h4v0.3
			c-0.5,0-0.9,0.1-1.1,0.3c-0.2,0.1-0.2,0.5-0.2,1v6c0,0.5,0.1,0.8,0.2,1c0.2,0.1,0.5,0.2,1.1,0.2v0.3h-4V41.9z"/>
		<path d="M347.6,41.9c0.6,0,0.9-0.1,1.1-0.2c0.2-0.1,0.2-0.4,0.2-1v-6c0-0.5-0.1-0.8-0.2-1c-0.2-0.1-0.5-0.2-1.1-0.3v-0.2h4v0.3
			c-0.5,0-0.9,0.1-1.1,0.3c-0.2,0.1-0.2,0.5-0.2,1v6c0,0.5,0.1,0.8,0.2,1c0.2,0.1,0.5,0.2,1.1,0.2v0.3h-4V41.9z"/>
	</g>
	<g>
		<path d="M329.9,96.7v0.2c-0.3,0-0.6,0-0.7,0.1c-0.2,0.1-0.3,0.2-0.3,0.4c0,0.1,0,0.3,0.1,0.5s0.2,0.5,0.4,1l2.1,4.7l1.9-5.1
			c0.1-0.2,0.1-0.4,0.2-0.6c0-0.2,0.1-0.3,0.1-0.4c0-0.3-0.1-0.4-0.3-0.5c-0.1-0.1-0.3-0.1-0.7-0.1v-0.2h2.8v0.2
			c-0.3,0-0.5,0.1-0.6,0.2c-0.2,0.2-0.4,0.5-0.6,1l-3,7.6h-0.2l-3.3-7.4c-0.3-0.6-0.5-1-0.7-1.2s-0.4-0.2-0.7-0.3v-0.2h3.5V96.7z"/>
	</g>
	<g>
		<path d="M347.5,65.3c0.6,0,0.9-0.1,1.1-0.2c0.2-0.1,0.2-0.4,0.2-1v-6c0-0.5-0.1-0.8-0.2-1c-0.2-0.1-0.5-0.2-1.1-0.3v-0.3h4v0.3
			c-0.5,0-0.9,0.1-1.1,0.3c-0.2,0.1-0.2,0.5-0.2,1v6c0,0.5,0.1,0.8,0.2,1c0.2,0.1,0.5,0.2,1.1,0.2v0.3h-4V65.3z"/>
		<path d="M352,65.3c0.6,0,0.9-0.1,1.1-0.2c0.2-0.1,0.2-0.4,0.2-1v-6c0-0.5-0.1-0.8-0.2-1c-0.2-0.1-0.5-0.2-1.1-0.3v-0.3h4v0.3
			c-0.5,0-0.9,0.1-1.1,0.3c-0.2,0.1-0.2,0.5-0.2,1v6c0,0.5,0.1,0.8,0.2,1c0.2,0.1,0.5,0.2,1.1,0.2v0.3h-4V65.3z"/>
		<path d="M356.5,65.3c0.6,0,0.9-0.1,1.1-0.2c0.2-0.1,0.2-0.4,0.2-1v-6c0-0.5-0.1-0.8-0.2-1c-0.2-0.1-0.5-0.2-1.1-0.3v-0.3h4v0.3
			c-0.5,0-0.9,0.1-1.1,0.3c-0.2,0.1-0.2,0.5-0.2,1v6c0,0.5,0.1,0.8,0.2,1c0.2,0.1,0.5,0.2,1.1,0.2v0.3h-4V65.3z"/>
	</g>
	<g>
		<path d="M340.6,87.8c0.6,0,0.9-0.1,1.1-0.2c0.2-0.1,0.2-0.4,0.2-1v-6c0-0.5-0.1-0.8-0.2-1c-0.2-0.1-0.5-0.2-1.1-0.3V79h4v0.3
			c-0.5,0-0.9,0.1-1.1,0.3c-0.2,0.1-0.2,0.5-0.2,1v6c0,0.5,0.1,0.8,0.2,1c0.2,0.1,0.5,0.2,1.1,0.2v0.3h-4V87.8z"/>
		<path d="M348.7,79.1v0.2c-0.3,0-0.6,0-0.7,0.1c-0.2,0.1-0.3,0.2-0.3,0.4c0,0.1,0,0.3,0.1,0.5s0.2,0.5,0.4,1l2.1,4.7l1.9-5.1
			c0.1-0.2,0.1-0.4,0.2-0.6c0-0.2,0.1-0.3,0.1-0.4c0-0.3-0.1-0.4-0.3-0.5c-0.1-0.1-0.3-0.1-0.7-0.1v-0.2h2.8v0.2
			c-0.3,0-0.5,0.1-0.6,0.2c-0.2,0.2-0.4,0.5-0.6,1l-3,7.6h-0.2l-3.3-7.4c-0.3-0.6-0.5-1-0.7-1.2s-0.4-0.2-0.7-0.3V79h3.5V79.1z"/>
	</g>
	<g>
		<path d="M305.9,104.9v0.2c-0.3,0-0.6,0-0.7,0.1c-0.2,0.1-0.3,0.2-0.3,0.4c0,0.1,0,0.3,0.1,0.5s0.2,0.5,0.4,1l2.1,4.7l1.9-5.1
			c0.1-0.2,0.1-0.4,0.2-0.6c0-0.2,0.1-0.3,0.1-0.4c0-0.3-0.1-0.4-0.3-0.5c-0.1-0.1-0.3-0.1-0.7-0.1v-0.2h2.8v0.2
			c-0.3,0-0.5,0.1-0.6,0.2c-0.2,0.2-0.4,0.5-0.6,1l-3,7.6h-0.2l-3.3-7.4c-0.3-0.6-0.5-1-0.7-1.2s-0.4-0.2-0.7-0.3v-0.2h3.5V104.9z"
			/>
		<path d="M312.1,113.6c0.6,0,0.9-0.1,1.1-0.2c0.2-0.1,0.2-0.4,0.2-1v-6c0-0.5-0.1-0.8-0.2-1c-0.2-0.1-0.5-0.2-1.1-0.3v-0.3h4v0.3
			c-0.5,0-0.9,0.1-1.1,0.3c-0.2,0.1-0.2,0.5-0.2,1v6c0,0.5,0.1,0.8,0.2,1c0.2,0.1,0.5,0.2,1.1,0.2v0.3h-4V113.6z"/>
	</g>
	<g>
		<path d="M283.3,96.7v0.2c-0.3,0-0.6,0-0.7,0.1c-0.2,0.1-0.3,0.2-0.3,0.4c0,0.1,0,0.3,0.1,0.5s0.2,0.5,0.4,1l2.1,4.7l1.9-5.1
			c0.1-0.2,0.1-0.4,0.2-0.6c0-0.2,0.1-0.3,0.1-0.4c0-0.3-0.1-0.4-0.3-0.5c-0.1-0.1-0.3-0.1-0.7-0.1v-0.2h2.8v0.2
			c-0.3,0-0.5,0.1-0.6,0.2c-0.2,0.2-0.4,0.5-0.6,1l-3,7.6h-0.2l-3.3-7.4c-0.3-0.6-0.5-1-0.7-1.2s-0.4-0.2-0.7-0.3v-0.2h3.5V96.7z"/>
		<path d="M289.5,105.4c0.6,0,0.9-0.1,1.1-0.2c0.2-0.1,0.2-0.4,0.2-1v-6c0-0.5-0.1-0.8-0.2-1c-0.2-0.1-0.5-0.2-1.1-0.3v-0.3h4v0.3
			c-0.5,0-0.9,0.1-1.1,0.3c-0.2,0.1-0.2,0.5-0.2,1v6c0,0.5,0.1,0.8,0.2,1c0.2,0.1,0.5,0.2,1.1,0.2v0.3h-4V105.4z"/>
		<path d="M294,105.4c0.6,0,0.9-0.1,1.1-0.2c0.2-0.1,0.2-0.4,0.2-1v-6c0-0.5-0.1-0.8-0.2-1c-0.2-0.1-0.5-0.2-1.1-0.3v-0.3h4v0.3
			c-0.5,0-0.9,0.1-1.1,0.3c-0.2,0.1-0.2,0.5-0.2,1v6c0,0.5,0.1,0.8,0.2,1c0.2,0.1,0.5,0.2,1.1,0.2v0.3h-4V105.4z"/>
	</g>
	<g>
		<path d="M268.1,79.8V80c-0.3,0-0.6,0-0.7,0.1c-0.2,0.1-0.3,0.2-0.3,0.4c0,0.1,0,0.3,0.1,0.5s0.2,0.5,0.4,1l2.1,4.7l1.9-5.1
			c0.1-0.2,0.1-0.4,0.2-0.6c0-0.2,0.1-0.3,0.1-0.4c0-0.3-0.1-0.4-0.3-0.5c-0.1-0.1-0.3-0.1-0.7-0.1v-0.2h2.8V80
			c-0.3,0-0.5,0.1-0.6,0.2c-0.2,0.2-0.4,0.5-0.6,1l-3,7.6h-0.2l-3.3-7.4c-0.3-0.6-0.5-1-0.7-1.2s-0.4-0.2-0.7-0.3v-0.2h3.5V79.8z"/>
		<path d="M274.2,88.5c0.6,0,0.9-0.1,1.1-0.2c0.2-0.1,0.2-0.4,0.2-1v-6c0-0.5-0.1-0.8-0.2-1c-0.2-0.1-0.5-0.2-1.1-0.3v-0.3h4V80
			c-0.6,0-0.9,0.1-1.1,0.3c-0.2,0.1-0.2,0.5-0.2,1v6c0,0.5,0.1,0.8,0.2,1c0.2,0.1,0.5,0.2,1.1,0.2v0.3h-4V88.5z"/>
		<path d="M278.7,88.5c0.6,0,0.9-0.1,1.1-0.2c0.2-0.1,0.2-0.4,0.2-1v-6c0-0.5-0.1-0.8-0.2-1c-0.2-0.1-0.5-0.2-1.1-0.3v-0.3h4V80
			c-0.6,0-0.9,0.1-1.1,0.3c-0.2,0.1-0.2,0.5-0.2,1v6c0,0.5,0.1,0.8,0.2,1c0.2,0.1,0.5,0.2,1.1,0.2v0.3h-4V88.5z"/>
		<path d="M283.2,88.5c0.6,0,0.9-0.1,1.1-0.2c0.2-0.1,0.2-0.4,0.2-1v-6c0-0.5-0.1-0.8-0.2-1c-0.2-0.1-0.5-0.2-1.1-0.3v-0.3h4V80
			c-0.6,0-0.9,0.1-1.1,0.3c-0.2,0.1-0.2,0.5-0.2,1v6c0,0.5,0.1,0.8,0.2,1c0.2,0.1,0.5,0.2,1.1,0.2v0.3h-4V88.5z"/>
	</g>
	<g>
		<path d="M257,66.8c0.6,0,0.9-0.1,1.1-0.2c0.2-0.1,0.2-0.4,0.2-1v-6c0-0.5-0.1-0.8-0.2-1c-0.2-0.1-0.5-0.2-1.1-0.3V58h4v0.3
			c-0.6,0-0.9,0.1-1.1,0.3c-0.2,0.1-0.2,0.5-0.2,1v6c0,0.5,0.1,0.8,0.2,1c0.2,0.1,0.5,0.2,1.1,0.2v0.3h-4V66.8z"/>
		<path d="M261.4,66.8c0.4,0,0.6-0.1,0.8-0.3s0.6-0.6,1.1-1.3l2.1-2.6l-1.5-2.2c-0.6-0.9-1.1-1.5-1.4-1.8c-0.3-0.2-0.6-0.4-1-0.4
			v-0.3h4.1v0.3c-0.4,0-0.6,0-0.8,0.1s-0.3,0.2-0.3,0.4c0,0.1,0,0.3,0.1,0.4c0,0.1,0.1,0.2,0.2,0.3l1.4,2l1.5-1.8
			c0.2-0.3,0.4-0.5,0.5-0.6c0-0.1,0.1-0.2,0.1-0.3c0-0.2-0.1-0.3-0.3-0.4c-0.1,0-0.3-0.1-0.6-0.1v-0.3h3.2v0.3
			c-0.4,0-0.6,0.1-0.8,0.2c-0.3,0.2-0.7,0.5-1.2,1.1l-2,2.5l2.6,3.7c0.3,0.4,0.5,0.7,0.7,0.8s0.4,0.2,0.8,0.2V67h-4v-0.3
			c0.4,0,0.6,0,0.8-0.1s0.2-0.2,0.2-0.3s-0.1-0.4-0.3-0.7s-0.8-1.2-1.7-2.5l-1.6,2c-0.2,0.3-0.4,0.5-0.5,0.6
			c-0.1,0.2-0.2,0.4-0.2,0.5c0,0.2,0.1,0.3,0.3,0.4c0.1,0,0.4,0.1,0.7,0.1V67h-3.1v-0.2H261.4z"/>
	</g>
	<g>
		<path d="M264.6,43.2c0.4,0,0.6-0.1,0.8-0.3s0.6-0.6,1.1-1.3l2.1-2.6l-1.5-2.2c-0.6-0.9-1.1-1.5-1.4-1.8c-0.3-0.2-0.6-0.4-1-0.4
			v-0.3h4.1v0.3c-0.4,0-0.6,0-0.8,0.1s-0.3,0.2-0.3,0.4c0,0.1,0,0.3,0.1,0.4c0,0.1,0.1,0.2,0.2,0.3l1.4,2l1.5-1.8
			c0.2-0.3,0.4-0.5,0.5-0.6c0-0.1,0.1-0.2,0.1-0.3c0-0.2-0.1-0.3-0.3-0.4c-0.1,0-0.3-0.1-0.6-0.1v-0.3h3.2v0.3
			c-0.4,0-0.6,0.1-0.8,0.2c-0.3,0.2-0.7,0.5-1.2,1.1l-2,2.5l2.6,3.7c0.3,0.4,0.5,0.7,0.7,0.8s0.4,0.2,0.8,0.2v0.3h-4v-0.2
			c0.4,0,0.6,0,0.8-0.1s0.2-0.2,0.2-0.3s-0.1-0.4-0.3-0.7s-0.8-1.2-1.7-2.5l-1.6,2c-0.2,0.3-0.4,0.5-0.5,0.6
			c-0.1,0.2-0.2,0.4-0.2,0.5c0,0.2,0.1,0.3,0.3,0.4c0.1,0,0.4,0.1,0.7,0.1v0.3h-3.1v-0.3H264.6z"/>
	</g>
	<g>
		<path d="M280.6,27.5c0.4,0,0.6-0.1,0.8-0.3s0.6-0.6,1.1-1.3l2.1-2.6l-1.5-2.1c-0.6-0.9-1.1-1.5-1.4-1.8c-0.3-0.2-0.6-0.4-1-0.4
			v-0.3h4.1V19c-0.4,0-0.6,0-0.8,0.1s-0.3,0.2-0.3,0.4c0,0.1,0,0.3,0.1,0.4c0,0.1,0.1,0.2,0.2,0.3l1.4,2l1.5-1.8
			c0.2-0.3,0.4-0.5,0.5-0.6c0-0.1,0.1-0.2,0.1-0.3c0-0.2-0.1-0.3-0.3-0.4c-0.1,0-0.3-0.1-0.6-0.1v-0.3h3.2V19
			c-0.4,0-0.6,0.1-0.8,0.2c-0.3,0.2-0.7,0.5-1.2,1.1l-2,2.5l2.6,3.7c0.3,0.4,0.5,0.7,0.7,0.8s0.4,0.2,0.8,0.2v0.3h-4v-0.3
			c0.4,0,0.6,0,0.8-0.1s0.2-0.2,0.2-0.3s-0.1-0.4-0.3-0.7s-0.8-1.2-1.7-2.5l-1.6,2c-0.2,0.3-0.4,0.5-0.5,0.6
			c-0.1,0.2-0.2,0.4-0.2,0.5c0,0.2,0.1,0.3,0.3,0.4c0.1,0,0.4,0.1,0.7,0.1v0.3h-3.1L280.6,27.5L280.6,27.5z"/>
		<path d="M290.4,27.5c0.6,0,0.9-0.1,1.1-0.2c0.2-0.1,0.2-0.4,0.2-1v-6c0-0.5-0.1-0.8-0.2-1c-0.2-0.1-0.5-0.2-1.1-0.3v-0.3h4V19
			c-0.5,0-0.9,0.1-1.1,0.3c-0.2,0.1-0.2,0.5-0.2,1v6c0,0.5,0.1,0.8,0.2,1c0.2,0.1,0.5,0.2,1.1,0.2v0.3h-4V27.5z"/>
	</g>
	<g>
		<path d="M299.4,19.5c0.4,0,0.6-0.1,0.8-0.3s0.6-0.6,1.1-1.3l2.1-2.6l-1.5-2.2c-0.6-0.9-1.1-1.5-1.4-1.8c-0.3-0.2-0.6-0.4-1-0.4
			v-0.3h4.1v0.3c-0.4,0-0.6,0-0.8,0.1s-0.3,0.2-0.3,0.4c0,0.1,0,0.3,0.1,0.4c0,0.1,0.1,0.2,0.2,0.3l1.4,2l1.5-1.8
			c0.2-0.3,0.4-0.5,0.5-0.6c0-0.1,0.1-0.2,0.1-0.3c0-0.2-0.1-0.3-0.3-0.4c-0.1,0-0.3-0.1-0.6-0.1v-0.3h3.2v0.3
			c-0.4,0-0.6,0.1-0.8,0.2c-0.3,0.2-0.7,0.5-1.2,1.1l-2,2.5l2.6,3.7c0.3,0.4,0.5,0.7,0.7,0.8s0.4,0.2,0.8,0.2v0.3h-4v-0.3
			c0.4,0,0.6,0,0.8-0.1s0.2-0.2,0.2-0.3s-0.1-0.4-0.3-0.7s-0.8-1.2-1.7-2.5l-1.6,2c-0.2,0.3-0.4,0.5-0.5,0.6
			c-0.1,0.2-0.2,0.4-0.2,0.5c0,0.2,0.1,0.3,0.3,0.4c0.1,0,0.4,0.1,0.7,0.1v0.3h-3.1v-0.2H299.4z"/>
		<path d="M309.3,19.5c0.6,0,0.9-0.1,1.1-0.2c0.2-0.1,0.2-0.4,0.2-1v-6c0-0.5-0.1-0.8-0.2-1c-0.2-0.1-0.5-0.2-1.1-0.3v-0.3h4V11
			c-0.5,0-0.9,0.1-1.1,0.3c-0.2,0.1-0.2,0.5-0.2,1v6c0,0.5,0.1,0.8,0.2,1c0.2,0.1,0.5,0.2,1.1,0.2v0.3h-4V19.5z"/>
		<path d="M313.8,19.5c0.6,0,0.9-0.1,1.1-0.2c0.2-0.1,0.2-0.4,0.2-1v-6c0-0.5-0.1-0.8-0.2-1c-0.2-0.1-0.5-0.2-1.1-0.3v-0.3h4V11
			c-0.5,0-0.9,0.1-1.1,0.3c-0.2,0.1-0.2,0.5-0.2,1v6c0,0.5,0.1,0.8,0.2,1c0.2,0.1,0.5,0.2,1.1,0.2v0.3h-4V19.5z"/>
	</g>
	<g>
		<polygon points="304.9,63.2 308.2,59.6 311.4,63.2 		"/>
	</g>
	<g>
		<rect x="307.1" y="31.2" width="2" height="32"/>
	</g>
	<g>
		<rect x="307.1" y="63.2" width="2" height="16"/>
	</g>
	<g>
		<path d="M308.2,28c0,1.6-2.8,1.4-2.6,3c0.1,1.3,1.7,1.3,2.6,1c1.5,0.4,2.5,0.3,2.6-1C311,29.4,308.2,29.5,308.2,28z"/>
	</g>
	<g>
		<path d="M308.2,82.2c0-1.6,2.8-1.4,2.6-3c-0.1-1.3-1.7-1.3-2.6-1c-1.5-0.4-2.5-0.3-2.6,1C305.4,80.8,308.2,80.7,308.2,82.2z"/>
	</g>
</g>
<g id="Stars">
	<polygon points="229.2,104.3 231.1,110.2 237.3,110.2 232.3,114.3 234.2,120.5 229.2,116.9 224.1,120.6 226.1,114.3 221,110.2 
		227.3,110.2 	"/>
	<polygon points="205.2,106.3 207.1,112.2 213.3,112.2 208.3,116 210.2,121.9 205.2,118.3 200.2,122 202.1,115.9 197.1,112.2 
		203.3,112.2 	"/>
	<polygon points="184,111.3 185.9,117.2 192.1,117.2 187.1,120.9 189,126.8 184,123.2 179,126.8 180.9,120.9 175.9,117.2 
		182.1,117.2 	"/>
	<polygon points="385,104.3 383.1,110.2 376.9,110.2 381.9,114.3 380,120.5 385,116.9 390.1,120.6 388.1,114.3 393.2,110.2 
		386.9,110.2 	"/>
	<polygon points="409,106.3 407.1,112.2 400.9,112.2 405.9,116 404,121.9 409,118.3 414,122 412.1,115.9 417.1,112.2 410.9,112.2 	
		"/>
	<polygon points="430.2,111.3 428.3,117.2 422.1,117.2 427.1,120.9 425.2,126.8 430.2,123.2 435.2,126.8 433.3,120.9 438.3,117.2 
		432.1,117.2 	"/>
</g>
</svg>
